<mxfile host="app.diagrams.net" modified="2024-06-17T11:15:39.131Z" agent="Mozilla/5.0 (X11; Linux x86_64; rv:126.0) Gecko/20100101 Firefox/126.0" version="24.5.4" etag="O0fC8o7xsKmZMlJHOiJn" type="github">
  <diagram name="Page-1" id="H_4A5BMWS49elcdrMSYK">
    <mxGraphModel>
      <root>
        <mxCell id="0" />
        <mxCell id="1" parent="0" />
      </root>
    </mxGraphModel>
  </diagram>
</mxfile>
